<svg height="512" viewBox="0 0 512 512" width="512" xmlns="http://www.w3.org/2000/svg"><g id="BULINE"><circle cx="256" cy="256" fill="#f7bb38" r="256"/></g><g id="Icons"><path d="m87.95 162.27h336.09v14.68h-336.09z" fill="#27273d"/><path d="m87.95 263.01h336.09v14.68h-336.09z" fill="#27273d"/><rect fill="#c0e9ff" height="90.66" rx="7.07" width="350.47" x="80.77" y="71.61"/><path d="m153.81 162.27h-66a7.07 7.07 0 0 1 -7.07-7.07v-76.52a7.06 7.06 0 0 1 7.07-7.07h66a7.07 7.07 0 0 0 -7.08 7.07v76.52a7.08 7.08 0 0 0 7.08 7.07z" fill="#a5e0f9"/><rect fill="#3e436d" height="48.37" rx="7.68" width="167.02" x="105.41" y="92.75"/><path d="m146.73 92.75v48.37h-33.64a7.68 7.68 0 0 1 -7.68-7.68v-33a7.68 7.68 0 0 1 7.68-7.69z" fill="#32314b"/><circle cx="375.56" cy="116.94" fill="#3e436d" r="35.29"/><circle cx="375.56" cy="116.94" fill="#f6c752" r="24.19"/><path d="m380.58 140.59a23.75 23.75 0 0 1 -5 .53 24.19 24.19 0 1 1 0-48.37 23.75 23.75 0 0 1 5 .53 24.18 24.18 0 0 0 0 47.31z" fill="#e2a730"/><rect fill="#f6c752" height="11.33" rx="5.67" width="135.99" x="120.92" y="100.97"/><rect fill="#f6c752" height="11.33" rx="5.67" width="135.99" x="120.92" y="121.2"/><path d="m146.73 101v11.3h-20.14a5.67 5.67 0 1 1 0-11.33z" fill="#e2a730"/><path d="m146.73 121.2v11.33h-20.14a5.67 5.67 0 0 1 -5.67-5.66 5.67 5.67 0 0 1 5.67-5.66z" fill="#e2a730"/><circle cx="319.16" cy="116.94" fill="#fff" r="12.14"/><circle cx="293.86" cy="116.94" fill="#fff" r="8.6"/><rect fill="#c0e9ff" height="90.66" rx="7.07" width="350.47" x="80.77" y="174.51"/><path d="m153.81 265.18h-66a7.07 7.07 0 0 1 -7.07-7.08v-76.52a7.07 7.07 0 0 1 7.07-7.07h66a7.08 7.08 0 0 0 -7.08 7.07v76.52a7.08 7.08 0 0 0 7.08 7.08z" fill="#a5e0f9"/><rect fill="#3e436d" height="48.37" rx="7.68" width="167.02" x="105.41" y="195.66"/><path d="m146.73 195.66v48.34h-33.64a7.68 7.68 0 0 1 -7.68-7.69v-33a7.68 7.68 0 0 1 7.68-7.68z" fill="#32314b"/><circle cx="375.56" cy="219.84" fill="#3e436d" r="35.29"/><circle cx="375.56" cy="219.84" fill="#f6c752" r="24.19"/><path d="m380.58 243.5a24.19 24.19 0 1 1 0-47.32 24.19 24.19 0 0 0 0 47.32z" fill="#e2a730"/><rect fill="#f6c752" height="11.33" rx="5.67" width="135.99" x="120.92" y="203.87"/><rect fill="#f6c752" height="11.33" rx="5.67" width="135.99" x="120.92" y="224.1"/><path d="m146.73 203.87v11.34h-20.14a5.67 5.67 0 1 1 0-11.34z" fill="#e2a730"/><path d="m146.73 224.1v11.33h-20.14a5.67 5.67 0 0 1 -5.67-5.66 5.67 5.67 0 0 1 5.67-5.66z" fill="#e2a730"/><circle cx="319.16" cy="219.84" fill="#fff" r="12.14"/><circle cx="293.86" cy="219.84" fill="#fff" r="8.6"/><rect fill="#c0e9ff" height="90.66" rx="7.07" width="350.47" x="80.77" y="276.73"/><path d="m153.81 367.4h-66a7.07 7.07 0 0 1 -7.07-7.08v-76.52a7.07 7.07 0 0 1 7.07-7.07h66a7.08 7.08 0 0 0 -7.08 7.07v76.52a7.08 7.08 0 0 0 7.08 7.08z" fill="#a5e0f9"/><rect fill="#3e436d" height="48.37" rx="7.68" width="167.02" x="105.41" y="297.88"/><path d="m146.73 297.88v48.37h-33.64a7.68 7.68 0 0 1 -7.68-7.69v-33a7.68 7.68 0 0 1 7.68-7.68z" fill="#32314b"/><circle cx="375.56" cy="322.06" fill="#3e436d" r="35.29"/><circle cx="375.56" cy="322.06" fill="#f6c752" r="24.19"/><path d="m380.58 345.72a24.19 24.19 0 1 1 0-47.32 24.19 24.19 0 0 0 0 47.32z" fill="#e2a730"/><rect fill="#f6c752" height="11.33" rx="5.67" width="135.99" x="120.92" y="306.09"/><rect fill="#f6c752" height="11.33" rx="5.67" width="135.99" x="120.92" y="326.32"/><path d="m146.73 306.09v11.34h-20.14a5.67 5.67 0 1 1 0-11.34z" fill="#e2a730"/><path d="m146.73 326.32v11.33h-20.14a5.67 5.67 0 0 1 -5.67-5.66 5.67 5.67 0 0 1 5.67-5.66z" fill="#e2a730"/><circle cx="319.16" cy="322.06" fill="#fff" r="12.14"/><circle cx="293.86" cy="322.06" fill="#fff" r="8.6"/><path d="m233.5 367.36h45v51h-45z" fill="#3586cb"/><rect fill="#3586cb" height="215.98" rx="6.93" transform="matrix(0 1 -1 0 701.86 189.86)" width="45" x="233.5" y="337.87"/><path d="m233.5 367.36h45v15.5h-45z" fill="#366fca"/><rect fill="#fff" height="55" rx="11.42" width="96.67" x="207.66" y="418.36"/></g></svg>