<svg id="Capa_1" enable-background="new 0 0 512 512" height="512" viewBox="0 0 512 512" width="512" xmlns="http://www.w3.org/2000/svg"><g><path d="m256 497c-105.172-23.371-180-116.654-180-224.391v-177.609c44.183 0 80-35.817 80-80h200c0 44.183 35.817 80 80 80v177.609c0 107.737-74.828 201.02-180 224.391z" fill="#5e59ce"/><path d="m356 15h-100v482c105.172-23.371 180-116.654 180-224.391v-177.609c-44.183 0-80-35.817-80-80z" fill="#00347b"/><path d="m437 241h-61c-5.015 0-9.699-2.506-12.481-6.679l-20-30c-4.595-6.893-2.733-16.206 4.16-20.801 6.893-4.595 16.206-2.733 20.801 4.16l15.547 23.32h52.973z" fill="#03232e"/><g fill="#00347b"><path d="m166 181h-91v-30h84.787l25.607-25.607c5.858-5.858 15.355-5.858 21.213 0l.001.001c5.858 5.858 5.858 15.355 0 21.213l-30 30c-2.814 2.813-6.63 4.393-10.608 4.393z"/><path d="m206 241h-131v-30h125.364l53.275-46.615c6.234-5.455 15.711-4.823 21.166 1.411 5.455 6.234 4.823 15.711-1.411 21.166l-57.516 50.327c-2.735 2.392-6.244 3.711-9.878 3.711z"/><path d="m143.519 324.321-15.547-23.321h-52.574v-30h60.602c5.015 0 9.699 2.506 12.481 6.679l20 30c4.595 6.893 2.733 16.206-4.16 20.801-6.893 4.596-16.206 2.734-20.802-4.159z"/></g><path d="m305.394 386.607c-5.858-5.858-5.858-15.355 0-21.213l30-30c2.813-2.814 6.628-4.394 10.606-4.394h78.988v30h-72.775l-25.606 25.607c-5.858 5.858-15.356 5.858-21.213 0z" fill="#03232e"/><path d="m237.196 346.204c-5.455-6.235-4.824-15.711 1.411-21.166l57.516-50.327c2.734-2.393 6.244-3.711 9.877-3.711h130.601v30h-124.965l-53.274 46.615c-6.235 5.455-15.711 4.824-21.166-1.411z" fill="#00347b"/><path d="m274.804 165.796c-4.804-5.49-12.724-6.63-18.804-3.1v39.485l17.393-15.219c6.235-5.455 6.866-14.931 1.411-21.166z" fill="#03232e"/><path d="m306 271c-3.633 0-7.143 1.319-9.877 3.711l-40.123 35.108v39.485c.824-.479 1.617-1.037 2.362-1.689l53.274-46.615h124.966v-30z" fill="#03232e"/><circle cx="286" cy="156" fill="#ff8859" r="45"/><path d="m286 111c-11.517 0-22.032 4.353-30 11.495v67.01c7.968 7.141 18.483 11.495 30 11.495 24.813 0 45-20.187 45-45s-20.187-45-45-45z" fill="#ff3c7d"/><circle cx="226" cy="356" fill="#ff8859" r="45"/><path d="m271 356c0-13.296-5.801-25.26-15-33.505v67.01c9.199-8.245 15-20.209 15-33.505z" fill="#ff3c7d"/><path d="m256 512c-1.091 0-2.183-.119-3.254-.357-54.185-12.041-103.154-42.517-137.886-85.815s-53.86-97.712-53.86-153.219v-177.609c0-8.284 6.716-15 15-15 35.841 0 65-29.159 65-65 0-8.284 6.716-15 15-15h200c8.284 0 15 6.716 15 15 0 35.841 29.159 65 65 65 8.284 0 15 6.716 15 15v177.609c0 55.507-19.128 109.921-53.86 153.218-34.731 43.298-83.7 73.774-137.886 85.815-1.071.239-2.163.358-3.254.358zm-165-403.183v163.792c0 100.367 67.677 185.836 165 208.999 97.323-23.163 165-108.632 165-208.999v-163.792c-40.395-6.435-72.383-38.423-78.817-78.817h-172.366c-6.434 40.395-38.422 72.383-78.817 78.817z" fill="#ff8859"/><path d="m436 80c-35.841 0-65-29.159-65-65 0-8.284-6.716-15-15-15h-100v30h86.183c6.435 40.395 38.423 72.383 78.817 78.817v163.792c0 100.367-67.677 185.836-165 208.999v30.392c1.091 0 2.183-.119 3.254-.357 54.186-12.041 103.154-42.517 137.886-85.815s53.86-97.712 53.86-153.219v-177.609c0-8.284-6.716-15-15-15z" fill="#ff3c7d"/></g></svg>